<svg xmlns="http://www.w3.org/2000/svg" width="48" height="48" viewBox="0 0 48 48"><style>.a{ stroke:none;fill:rgb(100%,100%,100%);}</style><path d="M9.9 0L31.4 0C32.4 0.1 33.4 0.9 33.8 1.9 35.2 5.2 36.5 8.6 37.9 12 37.9 12.2 38 12.3 38.2 12.5 38.9 13.2 39.6 13.9 40.3 14.6 40.8 15 41 15.7 41 16.4 41 17.3 41 18.2 41 19.1 41 19.5 40.6 19.7 40.3 19.6 37.5 19.1 34.6 19 31.8 19.3 29.5 19.5 27.1 20 24.9 20.7 24.1 20.9 23.3 21.2 22.5 21.5 21.7 21.9 21 22.5 20.5 23.1 20.3 23.3 20.2 23.4 20 23.4 14.1 23.4 8.3 23.4 2.4 23.4 1.2 23.4 0.1 22.5 0 21.3L0 15.6C0.1 15.4 0.2 15.1 0.4 14.9 1.4 13.9 2.4 12.9 3.4 11.9 3.7 11.7 3.7 11.3 3.9 11 5.1 7.9 6.3 4.9 7.6 1.8 7.9 0.8 8.9 0.1 9.9 0M11.2 4C11.1 4.1 11 4.2 10.9 4.3 10.3 6 9.6 7.6 8.9 9.3 8.8 9.6 9.1 10 9.5 9.9 16.9 9.9 24.4 10 31.9 9.9 32.2 10 32.6 9.6 32.4 9.3 31.7 7.6 31.1 6 30.4 4.3 30.3 4.1 30 4 29.8 4 23.7 4 17.6 4 11.5 4 11.4 4 11.3 4 11.2 4ZM11.2 4" class="a"/><path d="M29.2 22.7C30.7 22.4 32.3 22.2 33.9 22.1 37.2 22 40.5 22.5 43.7 23.3 44.6 23.6 45.4 23.8 46.3 24.2 47.2 24.6 47.8 25.5 48 26.5L48 34.5C47.8 37.9 46 41.1 43.6 43.4 42.1 45 40.3 46.2 38.3 47 37.7 47.3 37.1 47.5 36.5 47.7 36.2 47.9 35.8 48 35.4 48L34.5 48C33.8 47.9 33.2 47.6 32.5 47.4 29.1 46.1 26.1 43.8 24.1 40.7 22.8 38.7 22 36.3 22 33.8 22 31.5 22 29.2 22 26.9 22 25.7 22.8 24.6 23.9 24.1 25.6 23.4 27.4 23 29.2 22.7M33 28C33 29.3 33 30.5 33 31.7 32.9 31.9 32.8 32 32.7 32.1 31.7 32.1 30.7 32.1 29.7 32.1 29.2 32.1 28.7 32 28.2 32.3 27.5 32.6 27 33.3 27 34 27 35 27.9 36 28.9 36 30.1 36 31.3 36 32.5 36 32.8 36 32.9 36.2 33 36.4 33 37.5 33 38.7 33 39.8 33 40.2 33.1 40.6 33.3 41 33.8 41.9 34.9 42.3 35.8 41.8 36.5 41.5 37 40.8 37 40 37 38.9 37 37.7 37 36.6 37 36.3 37.2 36 37.5 36 38.5 36 39.5 36 40.5 36 40.9 36 41.3 36.1 41.6 35.9 42.2 35.7 42.7 35.3 42.9 34.7 43.1 34 42.9 33.1 42.4 32.6 42 32.2 41.4 32.1 40.9 32.1 39.8 32.1 38.6 32.1 37.5 32.1 37.2 32.1 37 31.9 37 31.6 37 30.4 37 29.2 37 27.9 36.9 26.9 36 26.1 35 26.1 34 26.1 33 27 33 28ZM33 28" class="a"/><path d="M2.1 25.6C2.2 25.5 2.3 25.3 2.5 25.4 5.2 25.4 7.8 25.4 10.5 25.4 10.8 25.4 11 25.6 11 25.9 11 26.5 11.1 27.2 10.9 27.8 10.5 28.8 9.5 29.4 8.5 29.4 7.1 29.4 5.7 29.4 4.3 29.4 3 29.4 1.9 28.2 2 26.9 2 26.5 1.9 26 2.1 25.6ZM2.1 25.6" class="a"/></svg>