<svg xmlns="http://www.w3.org/2000/svg" width="48" height="48" viewBox="0 0 48 48"><style>.a{ stroke:none;fill:rgb(100%,100%,100%);}</style><path d="M9.9 0L31.1 0C32.2 0.2 33.1 0.9 33.5 1.9 34.8 5.2 36.1 8.4 37.4 11.6 37.5 11.9 37.6 12.2 37.8 12.4 38.5 13.1 39.2 13.8 39.9 14.5 40.3 14.9 40.6 15.6 40.6 16.2 40.6 17.8 40.6 19.3 40.6 20.9 40.2 20.8 39.9 20.5 39.5 20.4 37.5 19.4 35.3 19.1 33.1 19 29.2 18.9 25.4 20.5 22.7 23.3 16 23.3 9.2 23.3 2.4 23.3 1.3 23.3 0.2 22.4 0 21.2L0 15.5C0.1 15.3 0.2 15 0.4 14.8 1.4 13.8 2.3 12.8 3.3 11.9 3.5 11.7 3.6 11.6 3.6 11.4 4.9 8.2 6.2 5 7.4 1.9 7.8 0.9 8.8 0.1 9.9 0M11 4.1C10.8 4.2 10.8 4.4 10.7 4.6 10 6.2 9.4 7.8 8.8 9.4 8.8 9.6 9 9.9 9.3 9.9 16.6 9.9 24 9.9 31.3 9.9 31.5 9.9 31.7 9.9 31.9 9.8 32.1 9.7 32.2 9.4 32.1 9.2 31.4 7.6 30.8 6 30.1 4.3 30 4.1 29.8 4 29.5 4 23.5 4 17.5 4 11.5 4 11.4 4 11.2 4 11 4.1ZM11 4.1" class="a"/><path d="M30.9 22.2C33.3 21.7 35.9 22.1 38 23.2 40 24.2 41.6 25.8 42.7 27.7 43.7 29.6 44.1 31.7 44 33.8 43.9 35.6 43.3 37.3 42.3 38.9 42.2 39.1 42.2 39.4 42.4 39.5 44.1 41.2 45.7 42.9 47.4 44.5 47.7 44.8 47.9 45.2 48 45.6L48 46.3C47.9 47.2 47.2 47.9 46.3 48L45.7 48C45 47.9 44.6 47.5 44.2 47 42.6 45.5 41.1 43.9 39.5 42.4 39.2 42.1 38.9 42.3 38.7 42.4 35.7 44.3 31.9 44.5 28.7 43.1 26.7 42.3 25 40.9 23.8 39.1 22.5 37.1 21.8 34.7 22 32.3 22.1 29.9 23.1 27.6 24.7 25.8 26.3 23.9 28.5 22.6 30.9 22.2M32.3 26.1C30.6 26.2 29 27 27.9 28.3 26.9 29.3 26.2 30.7 26.1 32.2 25.9 33.9 26.4 35.8 27.5 37.2 28.6 38.7 30.3 39.7 32.1 39.9 33.5 40.1 34.9 39.8 36.2 39.2 37.5 38.5 38.5 37.5 39.2 36.2 39.8 34.9 40.1 33.5 39.9 32.1 39.7 30.3 38.7 28.6 37.2 27.5 35.8 26.4 34.1 25.9 32.3 26.1ZM32.3 26.1" class="a"/><path d="M2.2 25.3C2.4 25.2 2.7 25.2 2.9 25.2 5.4 25.2 7.8 25.2 10.3 25.2 10.6 25.2 10.9 25.4 10.9 25.7 10.9 26.2 10.9 26.6 10.9 27.1 10.8 28.2 9.7 29.2 8.5 29.2 7.1 29.2 5.7 29.2 4.3 29.2 3.1 29.2 2 28.1 2 26.9 2 26.5 2 26.2 2 25.8 1.9 25.6 2 25.4 2.2 25.3ZM2.2 25.3" class="a"/></svg>