<svg xmlns="http://www.w3.org/2000/svg" width="48" height="48" viewBox="0 0 48 48"><style>.a{ stroke:none;fill:rgb(100%,100%,100%);}</style><path d="M17.4 0L30.6 0C31.8 0.1 32.8 1 33.1 2.1 33.7 4.4 34.3 6.6 34.9 8.9 35 9.2 35.2 9.4 35.4 9.5 36.1 10.2 36.8 10.8 37.6 11.5 38.1 11.9 38.5 12.7 38.5 13.4 38.5 14.5 38.5 15.5 38.5 16.6 38.5 17.7 37.6 18.8 36.5 19 36.3 19 36 19.2 36 19.5 36 20.1 36 20.8 36 21.5 36 21.8 36.3 22 36.6 22 37.9 22 39.2 22 40.5 22 40.8 22 41 21.7 41 21.4 41 17.6 41 13.8 41 10 41 9.3 41.4 8.6 42 8.2 42.5 8 43.1 7.9 43.7 8.1 44.4 8.4 45 9.1 45 9.9 45 21.1 45 32.2 45 43.3 45 43.6 45.1 43.9 45.4 44 45.8 44 46.2 43.9 46.6 44.1 47.3 44.3 47.9 44.9 48 45.7L48 46.3C47.9 47.1 47.1 47.9 46.3 48L39.7 48C39.2 47.9 38.8 47.7 38.5 47.3 37.9 46.7 37.8 45.8 38.2 45 38.6 44.4 39.3 44 40 44 40.3 44 40.6 44 40.8 43.8 41 43.7 41 43.5 41 43.3 41 37.7 41 32.1 41 26.5 41 26.3 40.8 26 40.5 26 29.5 26 18.6 26 7.6 26 7.3 26 7 26.2 7 26.5 7 32.1 7 37.7 7 43.3 7 43.5 7 43.8 7.2 43.9 7.4 44 7.7 44 8 44 8.7 44 9.4 44.4 9.8 45 10.2 45.7 10.1 46.7 9.6 47.3 9.3 47.7 8.8 47.9 8.3 48L1.7 48C0.8 47.9 0.1 47.1 0 46.3L0 45.7C0.1 44.9 0.7 44.2 1.5 44.1 1.8 43.9 2.2 44 2.6 44 2.9 43.9 3 43.6 3 43.3 3 32.2 3 21.1 3 9.9 3 9.1 3.5 8.4 4.3 8.1 4.8 7.9 5.4 7.9 5.9 8.2 6.6 8.5 7 9.2 7 9.9 7 13.8 7 17.6 7 21.5 7 21.7 7.2 22 7.5 22 8.8 22 10.1 22 11.4 22 11.7 22 12 21.8 12 21.5 12 20.8 12 20.1 12 19.4 11.9 19.1 11.7 19 11.4 18.9 10.3 18.7 9.5 17.7 9.5 16.6 9.5 15.6 9.5 14.5 9.5 13.5 9.5 12.7 9.8 12 10.4 11.5 11.1 10.8 11.9 10.2 12.7 9.5 12.9 9.3 13 9.1 13.1 8.9 13.7 6.6 14.3 4.4 14.9 2.1 15.2 1 16.2 0.2 17.4 0M18.8 4.1C18.6 4.1 18.5 4.2 18.5 4.4 18.2 5.2 18 6 17.8 6.8 17.7 7.1 17.9 7.4 18.1 7.5 18.3 7.5 18.5 7.5 18.7 7.5 22.3 7.5 26 7.5 29.6 7.5 29.9 7.5 30.3 7.3 30.2 6.9 30 6.1 29.8 5.2 29.5 4.4 29.5 4.1 29.2 4 29 4 25.6 4 22.3 4 18.9 4 18.9 4 18.8 4 18.8 4.1M18.2 19.1C18 19.3 18 19.7 18 20 18 20.5 18 21 18 21.6 18.1 21.8 18.3 22 18.6 22 22.2 22 25.8 22 29.4 22 29.7 22 30 21.8 30 21.5 30 20.9 30 20.2 30 19.6 30 19.3 29.8 19 29.4 19 25.8 19 22.3 19 18.7 19 18.5 19 18.4 19 18.2 19.1ZM18.2 19.1" class="a"/><path d="M23.4 28C24.3 27.8 25.3 28.2 25.6 29 25.9 29.8 26.1 30.5 26.3 31.2 26.5 31.8 27.1 32.2 27.7 32.1 28.5 31.9 29.2 31.8 29.9 31.6 30.6 31.4 31.3 31.8 31.7 32.3 32.2 33 32.1 34 31.6 34.6 31.1 35.1 30.6 35.6 30.1 36.1 29.7 36.6 29.7 37.3 30 37.7 30.6 38.4 31.2 38.9 31.7 39.6 32.1 40.2 32.1 41 31.7 41.6 31.3 42.2 30.6 42.5 29.9 42.4 29.2 42.2 28.5 42 27.7 41.9 27.1 41.8 26.5 42.2 26.3 42.7 26.1 43.5 25.9 44.3 25.6 45 25.2 45.9 24 46.3 23.2 45.8 22.8 45.6 22.4 45.2 22.3 44.8 22.1 44.1 21.9 43.4 21.7 42.7 21.5 42.2 20.9 41.8 20.3 41.9 19.5 42 18.8 42.2 18.1 42.4 17.3 42.5 16.5 42.1 16.2 41.4 15.8 40.8 15.9 39.9 16.4 39.4 16.9 38.9 17.4 38.4 17.9 37.8 18.3 37.4 18.3 36.7 17.9 36.2 17.4 35.6 16.9 35.1 16.4 34.6 16 34.1 15.9 33.4 16.1 32.8 16.3 32 17.2 31.4 18 31.6 18.8 31.7 19.5 31.9 20.3 32.1 20.9 32.2 21.5 31.8 21.7 31.2 21.9 30.6 22.1 29.9 22.3 29.2 22.5 28.6 22.9 28.2 23.4 28M23.5 34.6C22.2 34.8 21.3 36.1 21.6 37.4 21.8 38.7 23.1 39.7 24.4 39.4 25.7 39.3 26.8 37.8 26.4 36.5 26.2 35.2 24.8 34.2 23.5 34.6ZM23.5 34.6" class="a"/></svg>