<svg xmlns="http://www.w3.org/2000/svg" width="500" height="332" viewBox="0 0 500 332"><style>.a{fill:#fb2740;}</style><path d="M216 2.3C223.3 1.9 230.7 2 238 2 266 2 294 2 322 2 328 1.9 333.4 5.2 338.9 7.3 358.2 14.8 378 20.9 397.6 27.6 415.1 32.9 432.4 38.6 450.1 43.1 460.5 45.9 471.6 43.9 481.5 40 484.3 41.3 487 42.7 489.8 44 487.9 47.5 486.1 51 484.4 54.6 483.3 57.1 482.4 60.3 484.1 62.7 486.2 66.1 488.4 69.4 490.2 72.9 494.1 79 496 86 499.2 92.4 498.8 92.2 497.9 91.9 497.4 91.7 486.9 79 475.2 66.4 459.5 60.4 426.9 50.8 394.8 39.9 362.5 29.5 351.4 26.1 340.8 20.8 329.3 19.3 323.3 19.1 317.3 17.7 311.3 18.6 302.2 20.3 293.2 17.8 284 18.4 271.4 18.7 258.6 17.6 246 19.1 235.3 19 224.4 18.7 214 22 200.1 26.3 186.5 32.4 174.1 40.1 186.4 40.6 198.7 39.4 210.9 40.8 216.5 41.1 222.1 40.3 227.6 41.3 267.8 43 308.7 49.3 345.4 66.6 347.8 67.9 350.6 68.4 352.6 70.4 349.3 70.4 346.1 69.7 342.9 69.1 316.4 64.8 289.7 62.6 263 61.2 258.3 61.5 253.7 61 249 60.5 229.7 60.5 210.4 60.3 191.2 60.6 185 61.8 178.8 60.7 172.6 61.5 129.4 63.9 86.1 68.6 43.9 78.5 29 82.1 14.2 85.9 0 91.6L0 81.8C2.3 79.4 5.2 77.8 8 76 39.4 55.2 76.7 44.5 114 41.6 119.3 41.8 124.5 40.6 129.8 40.7 132.3 39.7 134.2 37.7 136.5 36.3 149.1 27.1 162.9 19.7 177 13.1 189.5 7.9 202.5 3.7 216 2.3Z" class="a"/><path d="M245.3 84.7C247.2 85 247.9 86.8 249 88.1 250.3 89.6 251.8 91 252.1 93 250.9 91.5 249.6 91.3 248.1 92.3 249.2 89.4 246 87.3 245.3 84.7Z" class="a"/><path d="M4.2 115.3C42.1 115.2 80.1 115.2 118.1 115.2 125.3 115.9 132.4 117.9 138.5 121.9 144.5 126.3 149.1 132.7 151 139.9 154.5 152.3 154.5 165.6 151.7 178.1 149.6 190.1 140.4 200.4 128.6 203.5 121.4 206 113.7 205.9 106.2 205.7 125.6 225.1 145.2 244.5 164.4 264.1L163.9 264.7C148.8 264.7 133.8 264.8 118.7 264.6 99.2 244.9 79.5 225.4 59.9 205.7 52.1 205.7 44.3 205.8 36.5 205.7 36.5 225.4 36.4 245 36.5 264.6 25.8 264.8 15 264.7 4.2 264.7 4.3 214.9 4.3 165.1 4.2 115.3M36.4 147.5C36.5 156.2 36.5 164.8 36.4 173.4 61.3 173.5 86.2 173.5 111 173.4 115.5 173.6 119.3 170.7 120.7 166.5 120.6 162.5 120.6 158.5 120.7 154.4 119.3 150.7 116.1 147.6 112 147.5 86.8 147.5 61.6 147.5 36.4 147.5Z" class="a"/><path d="M291 115.3C301.8 115.2 312.5 115.3 323.3 115.2 323.4 148.5 323.3 181.7 323.3 215 322.6 226 320.7 237.7 313.7 246.7 305.9 257.8 292 262.8 279 263.9 275.9 263.7 273 264.2 270.1 264.7 255.7 264.7 241.3 264.7 226.9 264.7 224 264 221 263.8 218 263.9 207.3 262.9 196.1 259.6 188.1 251.9 182.7 247 179 240.3 176.9 233.3 176.2 230.9 175.4 228.4 175.2 225.9 174.3 220.9 173.6 215.8 173.9 210.7 184.6 210.7 195.4 210.6 206.1 210.7 206.9 215.3 207.2 220.2 209.8 224.2 213.1 229.1 219.2 231.4 225 231.7 239.6 231.7 254.3 231.7 269 231.7 271.3 231.7 273.7 232 275.9 231.1 280.3 230.5 284.8 228.1 287.3 224.2 288.8 222.1 289.4 219.5 290.4 217.1 290.4 215.5 290.3 213.8 290.4 212.2 291.4 210.2 291.1 208 291.1 205.9 291 175.7 291.2 145.5 291 115.3Z" class="a"/><path d="M355.1 130.1C363.9 120.3 377.1 115.8 390 115.2 424.3 115.3 458.7 115.2 493.1 115.2 493.1 126 493.1 136.7 493.1 147.5 460.4 147.5 427.7 147.5 395 147.5 386.9 147.8 378.2 152.8 377.2 161.4 376.4 163.5 376.7 165.8 376.6 168 376.6 182.3 376.6 196.7 376.6 211 376.7 213.3 376.4 215.6 377.2 217.8 378 222.6 381 227.4 385.8 229.3 389 230.7 392.4 231.9 396 231.7 417.6 231.7 439.2 231.7 460.8 231.7 460.8 223 460.7 214.4 460.9 205.8 443 205.7 425.2 205.8 407.4 205.7 407.5 195 407.5 184.2 407.4 173.5 436 173.4 464.5 173.5 493 173.4 493.1 203.9 493.1 234.3 493 264.7 463.4 264.7 433.7 264.7 404 264.7 400.3 264.7 396.6 265 393.1 264 380.9 264.3 368.5 260.7 359 253 350.8 245.9 346.3 235.4 344.8 224.8 343.9 222.3 345 219.5 343.7 217.1 343.6 199.1 343.7 181.1 343.7 163 343.8 162.5 344.2 161.5 344.3 161 344.4 149.9 348.3 138.9 355.1 130.1Z" class="a"/><path d="M3.2 286.2C10.8 286.2 18.4 286 26 286.3 31.7 286.3 37.1 291.2 36.8 297 37 301 34.3 304.3 31 306.2 35.3 307.4 39 311.3 38.9 316 39.4 322.1 34.5 328.3 28.1 328.6 19.8 329 11.5 328.8 3.2 328.8 3.3 314.6 3.2 300.4 3.2 286.2M11.7 293.3C11.7 296.6 11.7 299.9 11.7 303.2 16.5 302.9 21.4 303.9 26 302.3 29.7 300.6 29.1 294.3 25 293.6 20.6 293.1 16.1 293.4 11.7 293.3M11.7 310.3C11.7 314.1 11.7 317.9 11.7 321.7 16.5 321.6 21.3 322 26.1 321.4 28.6 320.8 29.8 318.4 30.3 316.1 29.8 313.6 28.3 311.1 25.6 310.7 21 310 16.4 310.4 11.7 310.3Z" class="a"/><path d="M117.8 286.2C120.7 286.2 123.6 286.2 126.4 286.1 126.4 300.4 126.4 314.6 126.4 328.8 123.6 328.8 120.7 328.8 117.8 328.8 117.8 314.6 117.8 300.4 117.8 286.2Z" class="a"/><path d="M178.8 286.2C181.5 286.2 184.1 286.2 186.7 286.2 186.7 300.4 186.7 314.6 186.7 328.8 183.9 328.8 181 328.8 178.1 328.8 173.2 320.7 168.2 312.7 163.3 304.6 162.5 303.3 161.9 301.7 160.6 300.8 160.7 310.1 160.5 319.5 160.7 328.8 158 328.8 155.4 328.8 152.7 328.8 152.7 314.6 152.7 300.4 152.7 286.2 155.5 286.2 158.3 286.2 161.1 286.2 167 295.8 172.8 305.4 178.8 315 178.9 305.4 178.8 295.8 178.8 286.2Z" class="a"/><path d="M213.6 286.1C220.8 286.3 227.9 285.9 235.1 286.4 242 287.1 247.2 293.3 248.5 299.9 250.1 307.4 249.8 315.9 245.3 322.4 242.4 326.7 237.1 328.8 232 328.8 225.9 328.9 219.7 328.8 213.6 328.8 213.6 314.6 213.5 300.4 213.6 286.1M222.2 293.3C222.2 302.8 222.2 312.2 222.2 321.7 226.4 321.5 230.8 322.3 234.9 321 239 319.5 240 314.7 240.3 310.9 240.6 305.8 240.9 299.8 237.2 295.8 233.1 292.1 227.1 293.7 222.2 293.3Z" class="a"/><path d="M335.2 286.2C342.5 286.3 349.9 285.8 357.2 286.5 364.3 287.4 369.4 294.1 370.4 300.9 371.6 308.2 371.4 316.5 366.8 322.7 363.9 326.7 358.8 328.8 354 328.8 347.7 328.9 341.5 328.8 335.2 328.8 335.3 314.6 335.3 300.4 335.2 286.2M343.8 293.3C343.7 302.7 343.9 312.1 343.7 321.6 347.6 321.7 351.6 321.9 355.5 321.3 359.3 320.5 361.3 316.8 361.7 313.2 362.4 307.7 362.8 301.3 359.5 296.5 355.7 291.9 349 293.7 343.8 293.3Z" class="a"/><path d="M406.5 286.7C411.2 285.1 416.3 285 421.1 286.2 427.5 287.8 432.7 293.1 434.4 299.5 436.3 306.8 435.9 315.1 431.6 321.5 425 331.2 409.8 332.2 401 324.9 394.6 319.3 393.5 310 394.8 302 395.7 295.3 400.2 289.1 406.5 286.7M410.4 293.6C403 296.7 402.4 306.3 403.9 313.1 405 319.3 411.7 323.8 417.8 321.9 422.7 320.7 425.8 315.9 426.2 311.1 426.7 306.4 426.6 301.2 423.9 297.1 421 292.9 415 291.6 410.4 293.6Z" class="a"/><path d="M464.4 288.4C468.2 285.5 473.3 285.2 478 285.5 482 285.8 486.1 287.2 488.7 290.3 490.7 292.6 491.4 295.6 491.9 298.4 489 298.7 486.1 298.8 483.1 298.8 482.4 291.3 470.2 290.5 467.5 297 468.4 298.3 469.2 299.9 470.9 300.4 476.8 302.9 483.9 302.9 489 307.1 495.2 312.4 493.7 323.6 486.5 327.4 480.7 330.2 473.6 330.2 467.5 328.3 461.9 326.4 458.7 320.7 458.1 315.1 460.8 314.7 463.5 314.5 466.2 314.2 467.1 317.6 469 321.3 472.9 321.9 477.1 323 483.2 322 484.4 317.1 484.8 312.9 480 311.9 476.9 311.1 471.4 309.7 464.9 308.6 461.5 303.5 458.2 298.8 459.6 291.6 464.4 288.4Z" class="a"/><path d="M63.9 286.6C66.8 286.6 69.7 286.6 72.6 286.6 72.6 298.2 72.7 309.9 72.5 321.6 79.8 321.7 87.1 321.6 94.4 321.7 94.4 324.1 94.4 326.4 94.4 328.8 84.2 328.8 74.1 328.9 63.9 328.8 63.9 314.7 64 300.7 63.9 286.6Z" class="a"/><path d="M286.3 286.3C289.5 286 292.6 286.1 295.8 286.2 301.4 300.5 306.9 314.7 312.6 328.8 309.5 328.8 306.4 328.9 303.3 328.7 302.2 325.6 301 322.4 299.8 319.3 294.1 319.3 288.4 319.2 282.7 319.3 281.5 322.5 280.4 325.7 279.2 328.9 276.2 328.8 273.2 328.8 270.1 329 275.3 314.7 281.2 300.6 286.3 286.3M285.3 312.2C289.2 312.1 293.1 312.1 297 312.1 295.3 306.8 293.1 301.5 291.2 296.2 289 301.4 287.3 306.8 285.3 312.2Z" class="a"/></svg>