<svg xmlns="http://www.w3.org/2000/svg" width="48" height="48" viewBox="0 0 48 48"><style>.a{ stroke:none;fill:rgb(100%,100%,100%);}</style><path d="M26.7 0L47 0C47.5 0.1 47.9 0.5 47.9 0.9 47.9 8.3 47.9 15.6 47.9 23 47.9 23.5 47.4 24 46.9 24 40.2 24 33.6 24 26.9 24 26.4 24 25.9 23.6 25.9 23.1 25.9 15.7 25.9 8.3 25.9 0.9 25.9 0.5 26.2 0.1 26.7 0M39.5 4.6C39.3 4.6 39.1 4.7 38.9 4.9 38 5.7 37.1 6.5 36.2 7.3 36.1 7.4 35.9 7.5 35.7 7.4 35.4 7.3 35.3 7 35.2 6.8 34.8 6.3 34 6 33.4 6.3 32.8 6.5 32.4 7.2 32.5 7.9 32.5 8.3 32.9 8.6 33.1 9 33.4 9.5 33.7 10 34.1 10.3 34.9 11 36 11.1 36.8 10.6 37.2 10.4 37.5 10.1 37.8 9.8 38.8 8.9 39.8 8 40.8 7.1 41.3 6.7 41.5 6 41.2 5.4 41 4.8 40.2 4.4 39.5 4.6M39.4 13.6C39.2 13.7 39 13.9 38.8 14 38 14.8 37.1 15.5 36.3 16.2 36.1 16.5 35.7 16.6 35.5 16.3 35.3 16.1 35.1 15.7 34.8 15.5 34.1 15 33.1 15.3 32.7 16 32.4 16.5 32.4 17.2 32.8 17.6 33.1 18.1 33.3 18.5 33.6 18.9 34.2 19.7 35.2 20.1 36.1 19.9 36.5 19.8 37 19.6 37.3 19.3 38.5 18.2 39.7 17.2 40.9 16.1 41.3 15.7 41.5 15 41.2 14.4 40.9 13.7 40.1 13.4 39.4 13.6ZM39.4 13.6" class="a"/><path d="M9.8 18.5C10.1 18.5 10.4 18.5 10.7 18.5 13.2 18.5 15.7 18.5 18.2 18.5 18.6 18.5 19 18.4 19.4 18.5 20.1 18.7 20.7 19.3 20.8 20 21 20.6 20.9 21.2 20.5 21.7 20.2 22.2 19.6 22.5 18.9 22.5 16.5 22.5 14 22.5 11.5 22.5 11.3 22.5 11.1 22.6 11 22.8 10.4 24.5 9.7 26.1 9 27.8 9 28 9 28.2 9.2 28.3 9.3 28.5 9.6 28.5 9.8 28.5 17.3 28.5 24.8 28.5 32.3 28.5 32.5 28.5 32.8 28.2 32.8 28 32.8 27 33.6 26.1 34.6 26 35.5 25.9 36.4 26.5 36.7 27.4 37.1 28.4 37.5 29.4 37.9 30.4 38 30.6 38.1 30.8 38.2 30.9 39 31.7 39.7 32.4 40.4 33.1 40.9 33.6 41.1 34.2 41.1 34.9 41.1 36.3 41.1 37.7 41.1 39.1 41.1 39.4 41.2 39.7 41.1 40 40.9 41 40 41.8 39 41.9 26.8 41.9 14.5 41.9 2.2 41.9 1.1 41.8 0.1 40.7 0.1 39.6 0.1 37.9 0.1 36.2 0.1 34.5 0.1 34.1 0.3 33.7 0.6 33.4 1.6 32.4 2.6 31.4 3.6 30.4 3.8 30.2 3.8 30 3.9 29.8 5.2 26.6 6.4 23.5 7.7 20.3 8 19.4 8.9 18.7 9.8 18.5ZM9.8 18.5" class="a"/><path d="M2.1 44.4C2.1 44.1 2.4 43.9 2.7 44 5.3 44 7.9 44 10.5 44 10.8 43.9 11.1 44.1 11.1 44.4 11.1 45.1 11.2 45.8 11 46.4 10.6 47.3 9.8 47.9 8.9 48L4.4 48C3.5 47.9 2.7 47.3 2.3 46.5 2 45.9 2.1 45.1 2.1 44.4ZM2.1 44.4" class="a"/><path d="M30.1 44.4C30.2 44.1 30.5 43.9 30.7 44 33.3 44 35.9 44 38.5 44 38.8 43.9 39.1 44.1 39.1 44.5 39.1 45.1 39.2 45.9 38.9 46.5 38.6 47.3 37.8 47.9 36.9 48L32.4 48C31.2 47.9 30.2 46.9 30.1 45.7 30.1 45.3 30.1 44.8 30.1 44.4ZM30.1 44.4" class="a"/></svg>